# xmcd
#
# Track frame offsets: 
#        150
#        13517
#        26395
#        39862
#        53355
#        69032
#        82060
#        96500
#        109730
#        123832
#        135265
#        149150
#        160607
#        173177
#        188032
#        200675
#        214287
#        226935
#        237722
#        251480
#
# Disc length: 3534 seconds
#
# Revision: 6
# Processed by: cddbd v1.5.2PL0 Copyright (c) Steve Scherf et al.
# Submitted via: ExactAudioCopy v0.90b4
#
DISCID=0b0dcc14
DTITLE=Little Walter - Blues with a Feelin' - Chess Collectibles Volum
DTITLE=e 3  [CD1]
DYEAR=1997
DGENRE=Blues
TTITLE0=Juke (Alternate)
TTITLE1=Can't Hold Out Much Longer (Alternate)
TTITLE2=Blue Midnight (Alternate)
TTITLE3=Fast Boogie (Alternate)
TTITLE4=Driftin'
TTITLE5=Tonight With a Fool
TTITLE6=That's It
TTITLE7=Blues With a Feeling (Alternate)
TTITLE8=My Kind of Baby
TTITLE9=Last Boogie
TTITLE10=Come Back Baby
TTITLE11=I Love You So (Oh Baby)
TTITLE12=Big Leg Mama
TTITLE13=Mercy Babe A.K.A My Babe
TTITLE14=Thunderbird
TTITLE15=Crazy for My Baby
TTITLE16=Can't Stop Lovin' You
TTITLE17=Who
TTITLE18=Flying Saucer
TTITLE19=Teenage Beat
EXTD=
EXTT0=
EXTT1=
EXTT2=
EXTT3=
EXTT4=
EXTT5=
EXTT6=
EXTT7=
EXTT8=
EXTT9=
EXTT10=
EXTT11=
EXTT12=
EXTT13=
EXTT14=
EXTT15=
EXTT16=
EXTT17=
EXTT18=
EXTT19=
PLAYORDER=
